<svg xmlns="http://www.w3.org/2000/svg" viewBox="0 0 576 512" aria-hidden="true">
  <path fill="currentColor" d="M142.4 21.9c5.6 16.8-3.5 34.9-20.2 40.4L96 71.1V192c0 53 43 96 96 96s96-43 96-96V71.1l-26.1-8.7c-16.8-5.6-25.8-23.7-20.2-40.4s23.7-25.8 40.4-20.2l26.1 8.7c26.1 8.7 43.8 33.2 43.8 60.7V192c0 77.4-55 142-128 156.8V352c0 53 43 96 96 96s96-43 96-96v-32.9c-37.3-13.2-64-48.7-64-90.5 0-53 43-96 96-96s96 43 96 96c0 41.8-26.7 77.3-64 90.5V352c0 88.4-71.6 160-160 160s-160-71.6-160-160v-3.2C87 334 32 269.4 32 192V71.1c0-27.5 17.7-51.9 43.8-60.7l26.1-8.7c16.8-5.6 34.9 3.5 40.4 20.2zM448 256a32 32 0 1 0 0-64 32 32 0 1 0 0 64z"/>
</svg>
